<mxfile host="app.diagrams.net" agent="Mozilla/5.0 (Windows NT 10.0; Win64; x64) AppleWebKit/537.36 (KHTML, like Gecko) Chrome/137.0.0.0 Safari/537.36 Edg/137.0.0.0" version="27.2.0">
  <diagram name="PÃ¡gina-1" id="S8U-x5zmdfpuhueGBNwN">
    <mxGraphModel dx="2649" dy="880" grid="1" gridSize="10" guides="1" tooltips="1" connect="1" arrows="1" fold="1" page="1" pageScale="1" pageWidth="1169" pageHeight="827" math="0" shadow="0">
      <root>
        <mxCell id="0" />
        <mxCell id="1" parent="0" />
        <mxCell id="-i16baqEdhxGcpIUMj6I-20" style="edgeStyle=orthogonalEdgeStyle;rounded=0;orthogonalLoop=1;jettySize=auto;html=1;exitX=1;exitY=0.5;exitDx=0;exitDy=0;entryX=0;entryY=0.5;entryDx=0;entryDy=0;strokeWidth=3;fontSize=18;fontFamily=Times New Roman;fontStyle=1" parent="1" source="-i16baqEdhxGcpIUMj6I-1" target="-i16baqEdhxGcpIUMj6I-16" edge="1">
          <mxGeometry relative="1" as="geometry" />
        </mxCell>
        <mxCell id="-i16baqEdhxGcpIUMj6I-79" value="" style="edgeStyle=orthogonalEdgeStyle;rounded=0;orthogonalLoop=1;jettySize=auto;html=1;fontFamily=Times New Roman;fontSize=18;fontStyle=1" parent="1" source="-i16baqEdhxGcpIUMj6I-1" target="-i16baqEdhxGcpIUMj6I-16" edge="1">
          <mxGeometry relative="1" as="geometry" />
        </mxCell>
        <mxCell id="-i16baqEdhxGcpIUMj6I-1" value="&lt;font&gt;Drillholes Database&lt;/font&gt;" style="rounded=0;whiteSpace=wrap;html=1;strokeWidth=3;fillStyle=auto;glass=0;shadow=0;fontFamily=Times New Roman;fontSize=18;fontStyle=1" parent="1" vertex="1">
          <mxGeometry y="200" width="120" height="120" as="geometry" />
        </mxCell>
        <mxCell id="-i16baqEdhxGcpIUMj6I-100" style="edgeStyle=orthogonalEdgeStyle;rounded=0;orthogonalLoop=1;jettySize=auto;html=1;exitX=1;exitY=0.5;exitDx=0;exitDy=0;entryX=0;entryY=0.75;entryDx=0;entryDy=0;endArrow=none;startFill=0;strokeWidth=3;fontFamily=Times New Roman;fontSize=18;fontStyle=1" parent="1" source="-i16baqEdhxGcpIUMj6I-16" target="-i16baqEdhxGcpIUMj6I-22" edge="1">
          <mxGeometry relative="1" as="geometry" />
        </mxCell>
        <mxCell id="-i16baqEdhxGcpIUMj6I-16" value="&lt;font&gt;Data&amp;nbsp;&lt;/font&gt;&lt;div&gt;&lt;font&gt;Pre-Processing and Preparation&lt;/font&gt;&lt;/div&gt;" style="rounded=0;whiteSpace=wrap;html=1;strokeWidth=3;fillStyle=auto;glass=0;shadow=0;fontFamily=Times New Roman;fontSize=18;fontStyle=1" parent="1" vertex="1">
          <mxGeometry x="160" y="200" width="160" height="120" as="geometry" />
        </mxCell>
        <mxCell id="-i16baqEdhxGcpIUMj6I-112" style="edgeStyle=orthogonalEdgeStyle;rounded=0;orthogonalLoop=1;jettySize=auto;html=1;exitX=1;exitY=0.5;exitDx=0;exitDy=0;entryX=0;entryY=0.5;entryDx=0;entryDy=0;strokeWidth=3;fontFamily=Times New Roman;fontSize=18;fontStyle=1" parent="1" source="-i16baqEdhxGcpIUMj6I-17" target="-i16baqEdhxGcpIUMj6I-71" edge="1">
          <mxGeometry relative="1" as="geometry" />
        </mxCell>
        <mxCell id="-i16baqEdhxGcpIUMj6I-17" value="&lt;font&gt;Training and Testing Model&lt;/font&gt;" style="rounded=0;whiteSpace=wrap;html=1;strokeWidth=3;fillStyle=auto;glass=0;shadow=0;fontFamily=Times New Roman;fontSize=18;fontStyle=1" parent="1" vertex="1">
          <mxGeometry x="600" y="200" width="160" height="120" as="geometry" />
        </mxCell>
        <mxCell id="-i16baqEdhxGcpIUMj6I-103" style="edgeStyle=orthogonalEdgeStyle;rounded=0;orthogonalLoop=1;jettySize=auto;html=1;exitX=1;exitY=0.5;exitDx=0;exitDy=0;entryX=0;entryY=0.5;entryDx=0;entryDy=0;endArrow=classic;startFill=0;strokeWidth=3;endFill=1;fontFamily=Times New Roman;fontSize=18;fontStyle=1" parent="1" source="-i16baqEdhxGcpIUMj6I-22" target="-i16baqEdhxGcpIUMj6I-17" edge="1">
          <mxGeometry relative="1" as="geometry">
            <Array as="points">
              <mxPoint x="560" y="180" />
              <mxPoint x="560" y="260" />
            </Array>
          </mxGeometry>
        </mxCell>
        <mxCell id="-i16baqEdhxGcpIUMj6I-108" style="edgeStyle=orthogonalEdgeStyle;rounded=0;orthogonalLoop=1;jettySize=auto;html=1;exitX=0.5;exitY=0;exitDx=0;exitDy=0;entryX=0.5;entryY=0;entryDx=0;entryDy=0;fontFamily=Times New Roman;fontSize=18;fontStyle=1;strokeWidth=3;" parent="1" source="-i16baqEdhxGcpIUMj6I-22" target="-i16baqEdhxGcpIUMj6I-71" edge="1">
          <mxGeometry relative="1" as="geometry" />
        </mxCell>
        <mxCell id="-i16baqEdhxGcpIUMj6I-109" value="Interpolation in Block Model" style="edgeLabel;html=1;align=center;verticalAlign=middle;resizable=0;points=[];fontSize=18;fontFamily=Times New Roman;fontStyle=0" parent="-i16baqEdhxGcpIUMj6I-108" vertex="1" connectable="0">
          <mxGeometry x="-0.2605" y="-5" relative="1" as="geometry">
            <mxPoint x="36" y="-5" as="offset" />
          </mxGeometry>
        </mxCell>
        <mxCell id="-i16baqEdhxGcpIUMj6I-22" value="Secondarity Variable" style="rounded=0;whiteSpace=wrap;html=1;strokeWidth=3;fillStyle=auto;glass=0;shadow=0;fontFamily=Times New Roman;fontSize=18;fontStyle=0" parent="1" vertex="1">
          <mxGeometry x="400" y="160" width="120" height="40" as="geometry" />
        </mxCell>
        <mxCell id="-i16baqEdhxGcpIUMj6I-104" style="edgeStyle=orthogonalEdgeStyle;rounded=0;orthogonalLoop=1;jettySize=auto;html=1;exitX=1;exitY=0.5;exitDx=0;exitDy=0;entryX=0;entryY=0.5;entryDx=0;entryDy=0;endArrow=classic;startFill=0;strokeWidth=3;endFill=1;fontFamily=Times New Roman;fontSize=18;fontStyle=1" parent="1" source="-i16baqEdhxGcpIUMj6I-24" target="-i16baqEdhxGcpIUMj6I-17" edge="1">
          <mxGeometry relative="1" as="geometry">
            <Array as="points">
              <mxPoint x="560" y="260" />
            </Array>
          </mxGeometry>
        </mxCell>
        <mxCell id="-i16baqEdhxGcpIUMj6I-106" style="edgeStyle=orthogonalEdgeStyle;rounded=0;orthogonalLoop=1;jettySize=auto;html=1;exitX=0.5;exitY=1;exitDx=0;exitDy=0;entryX=0.5;entryY=1;entryDx=0;entryDy=0;fontFamily=Times New Roman;fontSize=18;fontStyle=1;strokeWidth=3;" parent="1" source="-i16baqEdhxGcpIUMj6I-24" target="-i16baqEdhxGcpIUMj6I-71" edge="1">
          <mxGeometry relative="1" as="geometry" />
        </mxCell>
        <mxCell id="-i16baqEdhxGcpIUMj6I-107" value="&lt;font&gt;Interpolation in Block Model&lt;/font&gt;" style="edgeLabel;html=1;align=center;verticalAlign=middle;resizable=0;points=[];fontSize=18;fontFamily=Times New Roman;fontStyle=0" parent="-i16baqEdhxGcpIUMj6I-106" vertex="1" connectable="0">
          <mxGeometry x="0.2083" y="3" relative="1" as="geometry">
            <mxPoint x="-79" as="offset" />
          </mxGeometry>
        </mxCell>
        <mxCell id="-i16baqEdhxGcpIUMj6I-24" value="&lt;font&gt;SDF per Unit&lt;/font&gt;" style="rounded=0;whiteSpace=wrap;html=1;strokeWidth=3;fillStyle=auto;glass=0;shadow=0;fontFamily=Times New Roman;fontSize=18;fontStyle=0" parent="1" vertex="1">
          <mxGeometry x="400" y="310" width="120" height="60" as="geometry" />
        </mxCell>
        <mxCell id="-i16baqEdhxGcpIUMj6I-101" style="edgeStyle=orthogonalEdgeStyle;rounded=0;orthogonalLoop=1;jettySize=auto;html=1;exitX=1;exitY=0.5;exitDx=0;exitDy=0;entryX=0;entryY=0.5;entryDx=0;entryDy=0;endArrow=classic;startFill=0;strokeWidth=3;endFill=1;fontFamily=Times New Roman;fontSize=18;fontStyle=1" parent="1" source="-i16baqEdhxGcpIUMj6I-26" target="-i16baqEdhxGcpIUMj6I-17" edge="1">
          <mxGeometry relative="1" as="geometry">
            <Array as="points">
              <mxPoint x="540" y="260" />
              <mxPoint x="540" y="260" />
            </Array>
          </mxGeometry>
        </mxCell>
        <mxCell id="-i16baqEdhxGcpIUMj6I-26" value="Geological Units" style="rounded=0;whiteSpace=wrap;html=1;strokeWidth=3;fillStyle=auto;glass=0;shadow=0;fontFamily=Times New Roman;fontSize=18;fillColor=#e1d5e7;strokeColor=#000000;fontStyle=0" parent="1" vertex="1">
          <mxGeometry x="400" y="240" width="120" height="40" as="geometry" />
        </mxCell>
        <mxCell id="-i16baqEdhxGcpIUMj6I-34" style="edgeStyle=orthogonalEdgeStyle;rounded=0;orthogonalLoop=1;jettySize=auto;html=1;exitX=1;exitY=0.5;exitDx=0;exitDy=0;entryX=0;entryY=0.5;entryDx=0;entryDy=0;endArrow=none;startFill=0;strokeWidth=3;fontSize=18;fontFamily=Times New Roman;fontStyle=1" parent="1" source="-i16baqEdhxGcpIUMj6I-16" target="-i16baqEdhxGcpIUMj6I-26" edge="1">
          <mxGeometry relative="1" as="geometry">
            <mxPoint x="410" y="230" as="sourcePoint" />
            <mxPoint x="450" y="150" as="targetPoint" />
          </mxGeometry>
        </mxCell>
        <mxCell id="-i16baqEdhxGcpIUMj6I-114" style="edgeStyle=orthogonalEdgeStyle;rounded=0;orthogonalLoop=1;jettySize=auto;html=1;exitX=1;exitY=0.5;exitDx=0;exitDy=0;entryX=0;entryY=0.5;entryDx=0;entryDy=0;strokeWidth=3;" parent="1" source="-i16baqEdhxGcpIUMj6I-71" target="-i16baqEdhxGcpIUMj6I-113" edge="1">
          <mxGeometry relative="1" as="geometry" />
        </mxCell>
        <mxCell id="-i16baqEdhxGcpIUMj6I-71" value="&lt;font&gt;Geological Units&lt;/font&gt;&lt;div&gt;&lt;font&gt;Prediction in&amp;nbsp;&lt;/font&gt;&lt;/div&gt;&lt;div&gt;&lt;font&gt;Grid Set&lt;/font&gt;&lt;/div&gt;" style="rounded=0;whiteSpace=wrap;html=1;strokeWidth=3;fillStyle=auto;glass=0;shadow=0;fontFamily=Times New Roman;fontSize=18;fontStyle=1" parent="1" vertex="1">
          <mxGeometry x="800" y="200" width="160" height="120" as="geometry" />
        </mxCell>
        <mxCell id="-i16baqEdhxGcpIUMj6I-113" value="&amp;nbsp;Contact Units Adjust" style="rounded=0;whiteSpace=wrap;html=1;strokeWidth=3;fillStyle=auto;glass=0;shadow=0;fontFamily=Times New Roman;fontSize=18;fontStyle=1" parent="1" vertex="1">
          <mxGeometry x="1000" y="200" width="120" height="120" as="geometry" />
        </mxCell>
        <mxCell id="HNBjI8xHRszEJ0xHAuVF-4" value="" style="endArrow=none;html=1;rounded=0;fontSize=18;strokeWidth=3;" edge="1" parent="1">
          <mxGeometry width="50" height="50" relative="1" as="geometry">
            <mxPoint x="360" y="340" as="sourcePoint" />
            <mxPoint x="360" y="260" as="targetPoint" />
          </mxGeometry>
        </mxCell>
        <mxCell id="HNBjI8xHRszEJ0xHAuVF-5" value="" style="endArrow=none;html=1;rounded=0;fontSize=18;strokeWidth=3;exitX=0;exitY=0.5;exitDx=0;exitDy=0;" edge="1" parent="1" source="-i16baqEdhxGcpIUMj6I-24">
          <mxGeometry width="50" height="50" relative="1" as="geometry">
            <mxPoint x="350" y="400" as="sourcePoint" />
            <mxPoint x="360" y="340" as="targetPoint" />
          </mxGeometry>
        </mxCell>
        <mxCell id="HNBjI8xHRszEJ0xHAuVF-6" value="" style="endArrow=none;dashed=1;html=1;dashPattern=1 3;strokeWidth=2;rounded=0;fillColor=#f5f5f5;strokeColor=#666666;" edge="1" parent="1">
          <mxGeometry width="50" height="50" relative="1" as="geometry">
            <mxPoint x="800" y="441" as="sourcePoint" />
            <mxPoint x="800" y="81" as="targetPoint" />
          </mxGeometry>
        </mxCell>
        <mxCell id="HNBjI8xHRszEJ0xHAuVF-7" value="Composites Support" style="edgeLabel;html=1;align=center;verticalAlign=middle;resizable=0;points=[];fontSize=20;fontFamily=Times New Roman;fontStyle=0" vertex="1" connectable="0" parent="1">
          <mxGeometry x="730" y="110" as="geometry">
            <mxPoint x="-18" y="-17" as="offset" />
          </mxGeometry>
        </mxCell>
        <mxCell id="HNBjI8xHRszEJ0xHAuVF-8" value="Blocks Support" style="edgeLabel;html=1;align=center;verticalAlign=middle;resizable=0;points=[];fontSize=20;fontFamily=Times New Roman;fontStyle=0" vertex="1" connectable="0" parent="1">
          <mxGeometry x="526" y="108" as="geometry">
            <mxPoint x="346" y="-14" as="offset" />
          </mxGeometry>
        </mxCell>
      </root>
    </mxGraphModel>
  </diagram>
</mxfile>
